<svg height="100" viewBox="0 0 200 100" width="200" xmlns="http://www.w3.org/2000/svg"><path d="m165.06063 8.5288217c-.23465-.0017-.46924-.000996-.70338.0023-4.62065-.005-9.33161.870747-13.39535 3.1476543-8.34733 4.591586-12.13197 14.542065-11.916 23.670744-.30383 3.543854 1.94899 6.591769 2.41776 10.027653 1.30693 9.887377-1.78749 19.615777-4.56477 28.978657-.90037 1.39432.61718 2.27425 1.41367 3.16666 5.91746 5.45565 12.10441 10.79847 19.55181 13.94955.25304-11.74015.10648-23.54088.13826-35.30392-3.80168-2.80734-7.60584-5.61177-11.40503-8.422145-1.72384-.639522-1.88834-2.497458-2.28643-4.009452-.0325-1.03259-1.04949-2.669385.0778-3.315277 4.56183.191777 9.04884 1.400136 13.57854 1.979948 7.67497 1.618504 15.35957-.525315 22.97193-1.61645 1.32309.01659 2.92942-.870422 4.12697-.09505.13644 1.95526-.56619 3.969928-1.16481 5.832711-4.23895 3.32819-8.73576 6.431045-13.05202 9.698145-.0481 11.48033-.0961 22.96065-.14344 34.44097-.41489 1.51778 1.06459.39789 1.76969.178 7.55982-3.83369 14.3659-9.14285 20.02418-15.43178-.75804-2.96016-1.91882-5.84212-2.62285-8.83405-1.70207-7.18213-3.39666-14.71191-2.0894-22.101522.4094-3.105919 2.72509-5.733613 2.2219-8.946945.2977-6.572473-1.16385-13.456501-5.52566-18.569636-4.67545-5.84648-12.14923-8.3728763-19.42335-8.4267643z" stroke-width=".294948"/><path d="m123.3777 23.16521v53.669677h-43.92148c-1.396376 5.425297-3.929862 10.394096-7.331249 14.637185h-30.47155c13.473157 0 24.395308-10.922151 24.395308-24.395308 0-13.336837-10.702252-24.174029-23.987141-24.391962l-22.363944-.0033c-5.389263 0-9.7581232-4.36886-9.7581232-9.758123s4.3688602-9.758123 9.7581232-9.758123h18.296481l-12.197654-14.6372313h18.296481l12.197654 14.6371853zm-115.87771 53.669677v-22.779904c3.478143 2.011997 7.499135 3.18993 11.789488 3.260312l22.363943.0033c5.389263 0 9.758123 4.368861 9.758123 9.758123 0 5.389263-4.36886 9.758123-9.758123 9.758123zm71.95623-19.516246h43.92148v-14.637185h-51.252729c3.401387 4.243089 5.934873 9.211888 7.331249 14.637185z" fill-rule="evenodd" stroke-width="1.219765"/></svg>